HIERARCHY
ROOT joint_Root
{
  OFFSET 0 0 0
  CHANNELS 6 Xposition Yposition Zposition Zrotation Xrotation Yrotation
  JOINT Hips
  {
    OFFSET 0 93.9241 -3
    CHANNELS 6 Xposition Yposition Zposition Zrotation Xrotation Yrotation
    JOINT Spine
    {
      OFFSET 15.7357 0 0
      CHANNELS 6 Xposition Yposition Zposition Zrotation Xrotation Yrotation
      JOINT Chest
      {
        OFFSET 8.98455 -0.406207 0
        CHANNELS 6 Xposition Yposition Zposition Zrotation Xrotation Yrotation
        JOINT Neck
        {
          OFFSET 16.3773 0 0
          CHANNELS 6 Xposition Yposition Zposition Zrotation Xrotation Yrotation
          JOINT Head
          {
            OFFSET 6.45672 0 0
            CHANNELS 6 Xposition Yposition Zposition Zrotation Xrotation Yrotation
            End Site
            {
              OFFSET 0 0 0
            }
          }
        }
        JOINT Shoulder_L
        {
          OFFSET 12.9942 -0.242716 4.98039
          CHANNELS 6 Xposition Yposition Zposition Zrotation Xrotation Yrotation
          JOINT UpperArm_L
          {
            OFFSET 5.34809 0 0
            CHANNELS 6 Xposition Yposition Zposition Zrotation Xrotation Yrotation
            JOINT LowerArm_L
            {
              OFFSET 24.3286 1.87007e-05 0
              CHANNELS 6 Xposition Yposition Zposition Zrotation Xrotation Yrotation
              JOINT Hand_L
              {
                OFFSET 22.2916 0 0
                CHANNELS 6 Xposition Yposition Zposition Zrotation Xrotation Yrotation
                End Site
                {
                  OFFSET 0 0 0
                }
              }
            }
          }
        }
        JOINT Shoulder_R
        {
          OFFSET 12.9945 -0.242716 -4.98039
          CHANNELS 6 Xposition Yposition Zposition Zrotation Xrotation Yrotation
          JOINT UpperArm_R
          {
            OFFSET -5.34813 0 0
            CHANNELS 6 Xposition Yposition Zposition Zrotation Xrotation Yrotation
            JOINT LowerArm_R
            {
              OFFSET -24.3289 0.000322201 0
              CHANNELS 6 Xposition Yposition Zposition Zrotation Xrotation Yrotation
              JOINT Hand_R
              {
                OFFSET -22.2915 -0.000108084 0
                CHANNELS 6 Xposition Yposition Zposition Zrotation Xrotation Yrotation
                End Site
                {
                  OFFSET 0 0 0
                }
              }
            }
          }
        }
      }
    }
    JOINT UpperLeg_L
    {
      OFFSET -2.19248 -6.46944 0
      CHANNELS 6 Xposition Yposition Zposition Zrotation Xrotation Yrotation
      JOINT LowerLeg_L
      {
        OFFSET 39.0811 0 -1.23785e-05
        CHANNELS 6 Xposition Yposition Zposition Zrotation Xrotation Yrotation
        JOINT Foot_L
        {
          OFFSET 40.9854 0 -1.26872e-05
          CHANNELS 6 Xposition Yposition Zposition Zrotation Xrotation Yrotation
          JOINT Toes_L
          {
            OFFSET 11.7543 0 0
            CHANNELS 6 Xposition Yposition Zposition Zrotation Xrotation Yrotation
            End Site
            {
              OFFSET 0 0 0
            }
          }
        }
      }
    }
    JOINT UpperLeg_R
    {
      OFFSET -2.19251 6.46944 0
      CHANNELS 6 Xposition Yposition Zposition Zrotation Xrotation Yrotation
      JOINT LowerLeg_R
      {
        OFFSET -39.0811 -0.00228153 -0.0401928
        CHANNELS 6 Xposition Yposition Zposition Zrotation Xrotation Yrotation
        JOINT Foot_R
        {
          OFFSET -40.9854 0 0
          CHANNELS 6 Xposition Yposition Zposition Zrotation Xrotation Yrotation
          JOINT Toes_R
          {
            OFFSET -11.7543 0 0
            CHANNELS 6 Xposition Yposition Zposition Zrotation Xrotation Yrotation
            End Site
            {
              OFFSET 0 0 0
            }
          }
        }
      }
    }
  }
}
MOTION
Frames:	4
Frame Time:	0.0333333
0 0 0 0 0 -0 -260.552 90.2302 -4.15872 84.0017 42.9677 -12.1741 15.7357 5.1072e-06 -5.51765e-07 91.4167 71.169 -82.4603 8.98455 -0.406207 -4.3199e-07 29.7542 2.59337 17.418 16.3773 -1.3905e-06 -6.99897e-07 6.36915 -9.83503 13.0265 6.45672 -1.25837e-06 -1.02172e-07 2.81048 -12.9706 12.3097 12.9942 -0.242716 4.98039 -90.2715 -8.15893 -106.912 5.34809 -7.22636e-06 -6.2814e-07 -48.801 3.26857 -74.6038 24.3286 1.87007e-05 4.90208e-06 6.60794 12.416 -28.3152 22.2916 -9.88446e-07 4.63217e-06 10.5169 5.13895 4.20709 12.9945 -0.242716 -4.98039 90.0123 0.167876 -109.176 -5.34813 -1.25947e-06 -3.79883e-06 -42.585 -5.59743 -31.5917 -24.3289 0.000322201 -8.65921e-06 5.22595 13.5535 -21.3242 -22.2915 -0.000108084 -4.47941e-06 16.5286 5.35522 -1.53449 -2.19248 -6.46944 -1.22534e-07 172.906 -19.9149 -38.5248 39.0811 -6.73843e-06 -1.23785e-05 0.393672 -0.247552 59.1248 40.9854 -6.48686e-06 -1.26872e-05 -7.27098 8.71385 -51.1586 11.7543 -2.30145e-07 3.05095e-06 0.355334 -0.422966 -20.603 -2.19251 6.46944 -1.45247e-06 173.58 -20.7502 142.543 -39.0811 -0.00228153 -0.0401928 -0.0407236 0.0719645 31.1725 -40.9854 7.72618e-06 5.99936e-06 -3.17224 -4.99842 -63.0678 -11.7543 -5.6619e-06 -5.58687e-06 -0.599476 -0.455875 -16.1689 
0 0 0 0 0 -0 -259.752 90.3608 -4.04412 84.9624 43.846 -12.5006 15.7357 5.1072e-06 -5.51765e-07 91.4162 71.0541 -82.6731 8.98455 -0.406207 -4.3199e-07 29.9873 2.57421 16.9903 16.3773 -1.3905e-06 -6.99897e-07 6.40507 -9.83135 12.6511 6.45672 -1.25837e-06 -1.02172e-07 3.0939 -13.1478 12.3204 12.9942 -0.242716 4.98039 -90.2671 -8.22817 -106.865 5.34809 -7.22636e-06 -6.2814e-07 -49.4848 1.97371 -75.4368 24.3286 1.87007e-05 4.90208e-06 6.87817 12.6105 -28.9211 22.2916 -9.88446e-07 4.63217e-06 11.0123 5.12894 4.44248 12.9945 -0.242716 -4.98039 90.0061 0.0827907 -109.194 -5.34813 -1.25947e-06 -3.79883e-06 -42.467 -5.78758 -32.0779 -24.3289 0.000322201 -8.65921e-06 4.82381 14.1022 -19.1081 -22.2915 -0.000108084 -4.47941e-06 16.4414 5.34195 -1.13774 -2.19248 -6.46944 -1.22534e-07 174.097 -18.566 -40.6711 39.0811 -6.73843e-06 -1.23785e-05 0.381431 -0.219472 61.6779 40.9854 -6.48686e-06 -1.26872e-05 -4.78131 3.85519 -52.3564 11.7543 -2.30144e-07 3.05095e-06 0.375438 -0.448773 -20.8413 -2.19251 6.46944 -1.45247e-06 173.198 -19.7023 143.569 -39.0811 -0.00228153 -0.0401928 -0.00387666 0.00943914 31.2686 -40.9854 7.72618e-06 5.99936e-06 -2.87248 -4.99281 -63.5573 -11.7543 -5.6619e-06 -5.58687e-06 -0.666293 -0.537893 -16.2548 
0 0 0 0 0 -0 -258.971 90.5448 -4.06703 86.2289 44.729 -13.1006 15.7357 5.1072e-06 -5.51765e-07 91.4475 70.9203 -82.9244 8.98455 -0.406207 -4.3199e-07 30.2565 2.57626 16.5429 16.3773 -1.3905e-06 -6.99897e-07 6.56775 -9.98893 12.3442 6.45672 -1.25837e-06 -1.02172e-07 2.98348 -13.1149 12.1238 12.9942 -0.242716 4.98039 -90.266 -8.29095 -106.844 5.34809 -7.22636e-06 -6.2814e-07 -50.6166 0.99259 -75.8532 24.3286 1.87007e-05 4.90208e-06 7.10111 12.4363 -30.0477 22.2916 -9.88446e-07 4.63217e-06 11.2734 5.12836 4.45612 12.9945 -0.242716 -4.98039 89.9844 -0.213377 -109.184 -5.34813 -1.25947e-06 -3.79883e-06 -42.313 -6.11927 -32.5869 -24.3289 0.000322201 -8.65921e-06 4.36522 14.2758 -17.2045 -22.2915 -0.000108084 -4.47941e-06 16.3168 5.32426 -0.618632 -2.19248 -6.46944 -1.22534e-07 175.125 -17.4941 -42.4045 39.0811 -6.73843e-06 -1.23785e-05 0.304127 -0.178519 61.7978 40.9854 -6.48686e-06 -1.26872e-05 -0.532553 -1.32888 -52.9924 11.7543 -2.30145e-07 3.05095e-06 0.375055 -0.448269 -20.8365 -2.19251 6.46944 -1.45247e-06 172.544 -18.3237 144.571 -39.0811 -0.00228153 -0.0401928 0.00880357 -0.0117225 31.1427 -40.9854 7.72618e-06 5.99936e-06 -2.91879 -4.70287 -63.7 -11.7543 -5.6619e-06 -5.58687e-06 -0.830972 -0.729962 -16.4237 
0 0 0 0 0 -0 -258.214 90.7832 -4.20841 87.5813 45.66 -13.933 15.7357 5.1072e-06 -5.51765e-07 91.2004 70.8001 -83.0377 8.98455 -0.406207 -4.3199e-07 30.5169 2.37127 15.8677 16.3773 -1.3905e-06 -6.99897e-07 6.61059 -9.65301 12.5146 6.45672 -1.25837e-06 -1.02172e-07 3.18875 -13.0186 11.6796 12.9942 -0.242716 4.98039 -90.2593 -8.65131 -106.723 5.34809 -7.22636e-06 -6.2814e-07 -51.7768 0.252306 -75.4335 24.3286 1.87007e-05 4.90208e-06 7.52693 12.2848 -31.8395 22.2916 -9.88446e-07 4.63217e-06 11.8384 5.1316 4.37999 12.9945 -0.242716 -4.98039 89.9807 -0.24094 -109.588 -5.34813 -1.25947e-06 -3.79883e-06 -42.2523 -6.69442 -33.0744 -24.3289 0.000322201 -8.65921e-06 4.02732 14.4876 -15.7221 -22.2915 -0.000108084 -4.47941e-06 16.306 5.3099 -0.206442 -2.19248 -6.46944 -1.22533e-07 176.329 -16.4847 -43.4291 39.0811 -6.73843e-06 -1.23785e-05 0.247753 -0.165341 59.0699 40.9854 -6.48686e-06 -1.26872e-05 1.91631 -5.1719 -53.6738 11.7543 -2.30145e-07 3.05095e-06 0.351693 -0.41828 -20.56 -2.19251 6.46944 -1.45247e-06 171.596 -17.3183 145.526 -39.0811 -0.00228153 -0.0401928 0.0223946 -0.0373712 30.6224 -40.9854 7.72618e-06 5.99936e-06 -3.10036 -4.9492 -63.6773 -11.7543 -5.6619e-06 -5.58687e-06 -1.04014 -0.948489 -16.518 
